<?xml version="1.0" encoding="utf-8"?>
<!-- Generator: Adobe Illustrator 22.0.1, SVG Export Plug-In . SVG Version: 6.00 Build 0)  -->
<svg version="1.1" id="Signature_Templates" xmlns="http://www.w3.org/2000/svg" xmlns:xlink="http://www.w3.org/1999/xlink"
	 x="0px" y="0px" viewBox="0 0 864 140" style="enable-background:new 0 0 864 140;" xml:space="preserve">
<style type="text/css">
	.st0{fill:#FFFFFF;}
</style>
<g>
	<g>
		<path class="st0" d="M358.6,75.3c0-12.6,6.9-20.2,16.8-20.2c9.9,0,16.9,7.7,16.9,20.2c0,12.7-7,20.6-16.9,20.6
			C365.5,95.9,358.6,88,358.6,75.3z M387,75.3c0-9.8-4.6-15.8-11.6-15.8c-7,0-11.6,6.1-11.6,15.8c0,9.8,4.6,16.2,11.6,16.2
			C382.4,91.5,387,85.1,387,75.3z"/>
		<path class="st0" d="M400.1,66h4.1l0.4,4.2h0.2c2.8-2.8,5.8-4.9,9.8-4.9c6.1,0,8.9,4,8.9,11.4v18.5h-4.9V77.3
			c0-5.5-1.7-7.8-5.5-7.8c-3,0-5,1.6-8,4.5v21.1h-4.9V66z"/>
		<path class="st0" d="M432.2,52.4h4.9v37.2c0,1.6,0.7,2.2,1.4,2.2c0.3,0,0.5,0,1.1-0.1l0.7,3.7c-0.7,0.3-1.5,0.5-2.8,0.5
			c-3.7,0-5.2-2.3-5.2-6.6V52.4z"/>
		<path class="st0" d="M445.8,56.8c0-1.9,1.5-3.2,3.4-3.2c1.9,0,3.4,1.3,3.4,3.2c0,1.9-1.5,3.2-3.4,3.2
			C447.3,60,445.8,58.7,445.8,56.8z M446.7,66h4.9v29.2h-4.9V66z"/>
		<path class="st0" d="M460.6,66h4.1l0.4,4.2h0.2c2.8-2.8,5.8-4.9,9.8-4.9c6.1,0,8.9,4,8.9,11.4v18.5h-4.9V77.3
			c0-5.5-1.7-7.8-5.5-7.8c-3,0-5,1.6-8,4.5v21.1h-4.9V66z"/>
		<path class="st0" d="M504.1,65.3c7.4,0,11.6,5.3,11.6,13.7c0,1-0.1,2-0.2,2.7h-19.7c0.4,6.3,4.1,10.3,9.7,10.3
			c2.8,0,5.1-0.9,7.3-2.3l1.7,3.2c-2.5,1.6-5.6,3-9.6,3c-7.8,0-14-5.7-14-15.2C491,71.1,497.4,65.3,504.1,65.3z M511.4,78.4
			c0-5.9-2.6-9.2-7.2-9.2c-4.1,0-7.8,3.4-8.4,9.2H511.4z"/>
		<path class="st0" d="M535.5,55.8h5v16.5h18.3V55.8h5v39.4h-5V76.6h-18.3v18.5h-5V55.8z"/>
		<path class="st0" d="M572.6,56.8c0-1.9,1.5-3.2,3.4-3.2c1.9,0,3.4,1.3,3.4,3.2c0,1.9-1.5,3.2-3.4,3.2
			C574.1,60,572.6,58.7,572.6,56.8z M573.5,66h4.9v29.2h-4.9V66z"/>
		<path class="st0" d="M589.5,94.1v-0.2c-1.4-0.9-2.6-2.5-2.6-4.7c0-2.5,1.7-4.4,3.2-5.4v-0.2c-1.9-1.6-3.8-4.4-3.8-7.9
			c0-6.4,5-10.4,11-10.4c1.6,0,3.1,0.3,4.1,0.7h10.1v3.8h-6c1.4,1.3,2.4,3.5,2.4,6c0,6.2-4.7,10.1-10.7,10.1c-1.4,0-3.1-0.4-4.4-1
			c-1,0.9-1.9,1.9-1.9,3.5c0,1.9,1.2,3.2,5.2,3.2h5.6c6.8,0,10.2,2.1,10.2,7c0,5.4-5.7,10.1-14.8,10.1c-7.1,0-12.1-2.8-12.1-7.9
			C585.2,98.3,586.8,95.9,589.5,94.1z M598,105.2c5.6,0,9.2-2.9,9.2-5.9c0-2.7-2.1-3.6-5.9-3.6h-5c-1.1,0-2.5-0.1-3.8-0.5
			c-2.1,1.5-3,3.2-3,4.9C589.5,103.2,592.7,105.2,598,105.2z M603.4,75.7c0-4.3-2.8-6.8-6.2-6.8c-3.4,0-6.2,2.5-6.2,6.8
			c0,4.3,2.8,7,6.2,7C600.6,82.6,603.4,79.9,603.4,75.7z"/>
		<path class="st0" d="M617.4,52.4h4.9v11.6l-0.2,6c2.8-2.6,5.7-4.8,9.7-4.8c6.1,0,8.9,4,8.9,11.4v18.5h-4.9V77.3
			c0-5.5-1.7-7.8-5.5-7.8c-3,0-5,1.6-8,4.5v21.1h-4.9V52.4z"/>
		<path class="st0" d="M662.8,86.6c2.8,2.9,6.8,4.9,10.9,4.9c5.2,0,8.2-2.6,8.2-6.4c0-4-2.8-5.3-6.5-7l-5.6-2.5
			c-3.7-1.6-8-4.4-8-10.1c0-6,5.2-10.4,12.4-10.4c4.7,0,8.8,2,11.6,4.9l-2.7,3.2c-2.4-2.3-5.3-3.7-8.9-3.7c-4.4,0-7.3,2.2-7.3,5.8
			c0,3.8,3.4,5.2,6.5,6.5l5.6,2.4c4.6,2,8.1,4.7,8.1,10.5c0,6.2-5.1,11.2-13.4,11.2c-5.5,0-10.4-2.3-13.8-5.8L662.8,86.6z"/>
		<path class="st0" d="M706.3,65.3c3.8,0,6.5,1.6,8.5,3.5l-2.5,3.2c-1.7-1.5-3.5-2.6-5.9-2.6c-5.3,0-9.1,4.6-9.1,11.3
			c0,6.7,3.7,11.2,9,11.2c2.8,0,5.1-1.4,6.8-2.9l2.2,3.2c-2.6,2.3-6,3.8-9.5,3.8c-7.7,0-13.7-5.6-13.7-15.2
			C692.3,70.9,698.8,65.3,706.3,65.3z"/>
		<path class="st0" d="M721.3,52.4h4.9v11.6l-0.2,6c2.8-2.6,5.7-4.8,9.7-4.8c6.1,0,8.9,4,8.9,11.4v18.5h-4.9V77.3
			c0-5.5-1.7-7.8-5.5-7.8c-3,0-5,1.6-8,4.5v21.1h-4.9V52.4z"/>
		<path class="st0" d="M765.1,65.3c7.1,0,13.5,5.6,13.5,15.4c0,9.7-6.4,15.2-13.5,15.2c-7.1,0-13.5-5.6-13.5-15.2
			C751.6,70.9,758,65.3,765.1,65.3z M765.1,91.8c5,0,8.4-4.5,8.4-11.2c0-6.7-3.4-11.3-8.4-11.3c-5,0-8.4,4.6-8.4,11.3
			C756.7,87.3,760.1,91.8,765.1,91.8z"/>
		<path class="st0" d="M797.6,65.3c7.1,0,13.5,5.6,13.5,15.4c0,9.7-6.4,15.2-13.5,15.2c-7.1,0-13.5-5.6-13.5-15.2
			C784.1,70.9,790.4,65.3,797.6,65.3z M797.6,91.8c5,0,8.4-4.5,8.4-11.2c0-6.7-3.4-11.3-8.4-11.3c-5,0-8.4,4.6-8.4,11.3
			C789.2,87.3,792.6,91.8,797.6,91.8z"/>
		<path class="st0" d="M818.3,52.4h4.9v37.2c0,1.6,0.7,2.2,1.4,2.2c0.3,0,0.5,0,1.1-0.1l0.7,3.7c-0.7,0.3-1.5,0.5-2.8,0.5
			c-3.7,0-5.2-2.3-5.2-6.6V52.4z"/>
	</g>
</g>
<g>
	<rect x="340" y="34.8" class="st0" width="2.4" height="60"/>
</g>
<g id="logo">
	<g>
		<path class="st0" d="M113.1,94.9c-10.2,0-11-7.8-11-10.1c0-2.8,0.7-7.7,7.3-10.1c6.7-2.5,8.2-2.8,12.8-4.2v-1.2
			c0-2.2,0-2.8-0.4-4.2c-0.9-2.7-3.4-4.3-6.9-4.3c-5.1,0-7.2,3.9-7.2,3.9l-0.4,0.8l-1.9-1.1l0.2-0.6c0.9-2.9,4.6-7.9,12.7-7.9
			c5.3,0,8.7,1.5,10.8,4.7c1.6,2.6,1.7,6.1,1.7,9.8c0,3.2-0.1,6.9-0.1,9.8c0,2-0.1,3.7-0.1,4.8c0,2.7,0.4,4.7,2.6,4.7
			c0.6,0,0.9-0.1,1.2-0.4l0.6-0.5l1.2,1.4l-0.4,0.5c-2,2.5-4,4.2-7.4,4.2c-3,0-5.1-1.4-5.8-3.8C120.8,92.7,117.8,94.9,113.1,94.9z
			 M122.1,75c-5,1.5-6.7,2.3-8.3,3.1c-2.2,1.1-3.3,3.3-3.3,5.9c0,2,0.7,5.5,5.6,5.5c1.6,0,3.9-0.3,5.9-1.7V75z"/>
	</g>
	<g>
		<g>
			<path class="st0" d="M50.7,94.8c-4.9,0-8.6-0.5-12.4-1.8l-0.6-0.2v-2.7c0-3.6-0.1-5.1-0.2-6.2l-0.1-1.9l2.2,0l0,0.8
				c0.1,1.7,0.7,3.4,1.7,4.5c1.6,1.8,5.3,2.9,8.7,2.9c7.2,0,10.5-2.7,10.5-8.6c0-5-3.1-7.1-7.4-10l-0.7-0.5l-4.5-3
				c-6.3-4.2-9.5-7.5-9.5-14.1c0-3.2,1.2-13.9,17-13.9c6.5,0,11.5,0.8,11.7,0.9l0.7,0.1l0,0.7c0,0-0.1,2.1-0.1,4.3
				c0,1.8,0,3.3,0,4.9l0.1,1.2h-1.9l0-0.7c-0.1-2-0.7-3.4-1.8-4.6c-1.5-1.5-4.9-2.2-8.4-2.2c-8.4,0-9.3,4.3-9.3,7.5
				c0,4.4,2.3,5.9,7.3,9.2l5.7,3.8c4.9,3.2,9.4,6.3,9.4,14.4C68.9,93.3,56.2,94.8,50.7,94.8z"/>
		</g>
		<g>
			<path class="st0" d="M88.1,95c-5.8,0-9.1-2.1-10.5-6.7C77,86.4,77,82.8,77,80.6c0-6,0.1-10.9,0.1-16.4l0-2.6h-5V60l0.5-0.2
				c2.3-1,3.2-1.6,4.2-2.4c3.6-2.8,6.1-7.6,6.2-7.6l0.8-1.4h1.6v8.5h12.8v4.7H85.6v19.8c0,5.9,1.1,9.3,6.7,9.3c2.6,0,4.6-1,4.6-1
				l0.8-0.4l0.7,1.5L98,91.1C97.9,91.2,95,95,88.1,95z"/>
		</g>
		<g>
			<path class="st0" d="M139.4,94.5v-1.8l0.7-0.1c0.6-0.1,2.2-0.3,3.3-1.6c1.2-1.3,1.2-4.5,1.2-10.9V69.4c0-4.6-0.1-6.6-0.7-7.6
				c-0.8-1.1-2.5-1.2-3.4-1.3c-0.1,0-0.2,0-0.3,0l-0.7-0.1v-2.2l0.9,0.1c0.1,0,0.3,0,0.6,0c1.2,0,3.9-0.2,6.8-0.7
				c2.2-0.4,3.5-1.1,4-1.3l0.4-0.2l0.7,0.4v3c1.9-1.4,5.7-3.6,10.9-3.6c6.8,0,11.2,3.2,12.5,8.9c0.4,1.4,0.5,4.9,0.5,6.7v11
				c0,6.2,0.2,8,1.4,9.1c0.6,0.5,1.8,1,2.9,1.1l0.7,0.1v1.8l-1.9-0.1c-2.7-0.1-5-0.3-7.5-0.3c-2.8,0-5.2,0-8.6,0.3l-0.9,0.1v-1.7
				l0.7-0.1c1.5-0.2,2.5-0.6,3.1-1.3c1.2-1.2,1.3-4.1,1.4-6.6c0-0.4,0-0.9,0.1-1.3c0.1-1.4,0.1-4.4,0.1-6.5c0-2.8,0-5.7-0.3-8.6
				c-0.6-4.9-3.1-7.1-8-7.1c-3.4,0-5.5,0.8-7.1,1.6v19.8c0,6.2,0.3,8,1.4,9.1c0.6,0.5,1.8,1,2.9,1.1l0.7,0.1v1.8l-2-0.1
				c-2.6-0.1-4.9-0.3-7.2-0.3c-2.7,0-5.3,0-8.6,0.3L139.4,94.5z"/>
		</g>
		<g>
			<path class="st0" d="M186.3,94.5v-1.8l0.7-0.1c0.6,0,2.2-0.3,3.3-1.6c1.2-1.3,1.2-4.5,1.2-10.9V61.5h-4.9v-2.1l0.5-0.2
				c2.1-0.9,3.4-1.6,4.4-2.3c0-3.3,0.1-7.6,0.6-10c1.5-7.8,6.6-11.7,15.1-11.7c3.7,0,7.2,1.2,9.2,2.9l0.3,0.2l0.1,0.8l-3.7,5.2
				l-0.9,0l-0.2-0.5c-1.4-3.2-3.5-4.4-6.3-4.4c-1.2,0-2.8,0.4-3.8,1.4c-1.6,1.6-1.9,4.1-1.9,8.9v7.3h8.4v4.7H200v20.9
				c0,5,0.2,7.4,0.8,8.4c1.1,1.6,4.3,1.7,5.2,1.7h0.8v2l-0.8,0c-4.1-0.2-7.2-0.3-9.5-0.3c-2.8,0-6,0-9.3,0.3L186.3,94.5z"/>
		</g>
		<g>
			<path class="st0" d="M229.7,95.2c-11.5,0-18.4-7.2-18.4-19.2c0-9.3,5-20.2,19.2-20.2c11.5,0,18.4,7.2,18.4,19.2
				C248.8,84.3,243.8,95.2,229.7,95.2z M230.1,60.2c-2.2,0-4,0.6-5.3,1.7c-3,2.5-4.6,7.2-4.6,13.7c0,2.5,0.5,15.2,9.7,15.2
				c2.2,0,4-0.6,5.3-1.7c3-2.5,4.6-7.2,4.6-13.7C239.9,72.8,239.4,60.2,230.1,60.2z"/>
		</g>
		<g>
			<path class="st0" d="M252.5,94.5v-1.9l0.7-0.1c0.6,0,2.2-0.3,3.3-1.6c1.2-1.3,1.2-4.4,1.2-10.8V69.4c0-4.6-0.1-6.6-0.7-7.6
				c-0.8-1.1-2.5-1.2-3.4-1.3c-0.1,0-0.2,0-0.3,0l-0.7-0.1v-2.3l0.8,0c0.1,0,0.4,0,0.6,0c1.2,0,3.9-0.1,6.8-0.7
				c1.8-0.3,3.4-0.8,4-1.1l0.4-0.2l0.7,0.3v3.3c1.8-1.7,4.7-3.5,8.7-3.5c2.6,0,4.8,0.7,6.3,2.1l0.3,0.2v1.2l-3.2,5.8h-1.5l-0.2-0.4
				c-0.9-1.4-2.6-3-6.1-3c-1.6,0-2.9,0.4-4.1,1.2v19c0,5,0.2,7.3,0.8,8.3c1.1,1.6,4.3,1.7,5.2,1.7h0.8v2.1l-0.8,0
				c-4.1-0.2-7.2-0.3-9.5-0.3c-2.8,0-6,0-9.3,0.3L252.5,94.5z"/>
		</g>
		<g>
			<path class="st0" d="M311.7,95l-1-0.3v-3.2c-1.9,1.4-5.6,3.5-10.5,3.5c-10.3,0-17-7.2-17-18.3c0-3.7,0.7-7.2,2.1-10.1
				c3.2-6.8,9.7-10.8,18-10.8c3,0,5.7,0.4,7.4,0.7v-8c0-4.7-0.1-7.2-0.7-8.2c-0.8-1.1-2.4-1.2-3.3-1.3c-0.1,0-0.2,0-0.3,0l-0.7-0.1
				l0.2-1.7h0.8c0.2,0,4.5-0.4,8.1-1.1c1.5-0.2,3-0.6,3.7-0.9l0.4-0.1l0.6,0.4l0,0.4c-0.2,3.1-0.3,9.7-0.3,14.7v30.7
				c0,4.6,0.1,7.4,0.7,8.3c0.8,1.1,2.4,1.3,3.3,1.4c0.1,0,0.2,0,0.3,0l0.7,0v2h-0.8c-0.8,0-4.1,0.2-7.3,0.8
				c-1.8,0.3-3.2,0.6-3.8,0.9L311.7,95z M303,60.4c-7.3,0-10.9,5-10.9,15.4c0,4.2,1.2,13.9,12.1,13.9h0.4c1.3,0,3.8-0.2,6-1.5V62.9
				C309.9,62.3,307.6,60.4,303,60.4z"/>
		</g>
	</g>
</g>
<g id="unit_x2F_dept">
</g>
</svg>
