<svg version="1.1" id="Layer_1" xmlns="http://www.w3.org/2000/svg" xmlns:xlink="http://www.w3.org/1999/xlink" x="0px" y="0px"
	 width="100%" viewBox="0 0 763 1080" enable-background="new 0 0 763 1080" xml:space="preserve">
<path fill="#F7F7F7" opacity="1.000000" stroke="none" 
	d="
M361.000000,1081.000000 
	C240.666672,1081.000000 120.833351,1081.000000 1.000016,1081.000000 
	C1.000011,721.000000 1.000011,361.000061 1.000005,1.000064 
	C255.333298,1.000043 509.666595,1.000043 763.999878,1.000021 
	C763.999939,360.999908 763.999939,720.999817 764.000000,1080.999878 
	C629.833313,1081.000000 495.666656,1081.000000 361.000000,1081.000000 
M36.048462,302.629303 
	C36.066158,303.511749 36.083855,304.394226 36.155148,306.178528 
	C35.826672,348.492615 35.468876,390.806488 35.177139,433.120850 
	C34.811821,486.107483 34.473709,539.094299 34.173248,592.081421 
	C33.813267,655.565735 33.528439,719.050476 33.164715,782.534790 
	C32.996704,811.859863 32.729305,841.184326 32.482410,870.508911 
	C32.427002,877.090210 34.103058,879.799805 40.711365,880.834045 
	C47.250233,881.857361 53.954510,882.385071 60.567272,882.243591 
	C70.531448,882.030457 80.489517,880.384705 90.431442,880.540894 
	C106.404022,880.791748 122.353851,882.480774 138.326523,882.736938 
	C174.839874,883.322510 211.218628,881.375854 247.422165,876.183533 
	C296.927887,869.083435 344.638702,856.002869 390.078583,834.894531 
	C392.288147,833.868103 395.588531,833.711853 397.872070,834.544983 
	C430.614166,846.491394 464.492157,853.077881 499.114075,855.829834 
	C531.210632,858.381042 563.326233,857.976379 595.426636,855.166748 
	C639.719116,851.289856 682.895630,842.292664 724.970642,827.917847 
	C727.983093,826.888672 728.934753,825.494202 728.910828,822.287048 
	C728.747864,800.455994 728.831848,778.623047 728.816711,756.790710 
	C728.815857,755.570801 728.643677,754.351074 728.513672,752.635010 
	C687.925720,769.573181 646.681885,782.022705 603.448303,787.139099 
	C560.147217,792.263428 517.118164,791.965515 473.648193,781.112732 
	C475.394684,779.542480 476.244293,778.766296 477.106750,778.004761 
	C502.785217,755.332336 524.529663,729.421936 541.371216,699.529785 
	C569.144470,650.234863 581.218628,597.489014 574.775635,541.079956 
	C569.860046,498.043396 554.167175,459.061615 528.107483,424.349609 
	C527.089233,422.993256 526.144165,421.581970 524.747131,419.604919 
	C560.450012,417.358551 594.874573,419.358917 629.096313,425.734100 
	C663.111877,432.070831 696.189148,441.611481 728.825562,454.717072 
	C728.825562,431.307861 728.671936,408.828430 728.954407,386.354431 
	C729.011292,381.825134 727.490234,380.171692 723.385193,378.828400 
	C678.531982,364.151245 632.432922,356.185822 585.459961,352.886719 
	C544.605042,350.017273 503.896393,351.290680 463.461761,358.091858 
	C458.691162,358.894257 454.975494,358.147827 450.888611,355.660095 
	C424.289856,339.469299 395.650940,328.057556 365.610748,320.080963 
	C357.472137,317.919922 349.258789,316.040405 341.017944,314.016479 
	C387.830322,203.922821 383.925018,94.069992 364.463165,21.966404 
	C345.125031,21.966404 325.813171,22.040403 306.503082,21.890575 
	C303.431671,21.866745 301.798950,22.979013 300.170319,25.451038 
	C240.188293,116.494423 180.134506,207.490524 120.076530,298.483826 
	C119.540489,299.295959 118.814957,299.983063 118.210861,300.689941 
	C118.210861,208.319733 118.210861,116.248642 118.210861,24.142387 
	C91.611290,24.142387 65.017189,24.142387 37.970310,24.142387 
	C37.345341,116.888512 36.722507,209.318069 36.048462,302.629303 
z"/>
<path fill="#FF0403" opacity="1.000000" stroke="none" 
	d="
M36.099670,301.747620 
	C36.722507,209.318069 37.345341,116.888512 37.970310,24.142387 
	C65.017189,24.142387 91.611290,24.142387 118.210861,24.142387 
	C118.210861,116.248642 118.210861,208.319733 118.210861,300.689941 
	C118.814957,299.983063 119.540489,299.295959 120.076530,298.483826 
	C180.134506,207.490524 240.188293,116.494423 300.170319,25.451038 
	C301.798950,22.979013 303.431671,21.866745 306.503082,21.890575 
	C325.813171,22.040403 345.125031,21.966404 364.463165,21.966404 
	C383.925018,94.069992 387.830322,203.922821 341.017944,314.016479 
	C349.258789,316.040405 357.472137,317.919922 365.610748,320.080963 
	C395.650940,328.057556 424.289856,339.469299 450.888611,355.660095 
	C454.975494,358.147827 458.691162,358.894257 463.461761,358.091858 
	C503.896393,351.290680 544.605042,350.017273 585.459961,352.886719 
	C632.432922,356.185822 678.531982,364.151245 723.385193,378.828400 
	C727.490234,380.171692 729.011292,381.825134 728.954407,386.354431 
	C728.671936,408.828430 728.825562,431.307861 728.825562,454.717072 
	C696.189148,441.611481 663.111877,432.070831 629.096313,425.734100 
	C594.874573,419.358917 560.450012,417.358551 524.747131,419.604919 
	C526.144165,421.581970 527.089233,422.993256 528.107483,424.349609 
	C554.167175,459.061615 569.860046,498.043396 574.775635,541.079956 
	C581.218628,597.489014 569.144470,650.234863 541.371216,699.529785 
	C524.529663,729.421936 502.785217,755.332336 477.106750,778.004761 
	C476.244293,778.766296 475.394684,779.542480 473.648193,781.112732 
	C517.118164,791.965515 560.147217,792.263428 603.448303,787.139099 
	C646.681885,782.022705 687.925720,769.573181 728.513672,752.635010 
	C728.643677,754.351074 728.815857,755.570801 728.816711,756.790710 
	C728.831848,778.623047 728.747864,800.455994 728.910828,822.287048 
	C728.934753,825.494202 727.983093,826.888672 724.970642,827.917847 
	C682.895630,842.292664 639.719116,851.289856 595.426636,855.166748 
	C563.326233,857.976379 531.210632,858.381042 499.114075,855.829834 
	C464.492157,853.077881 430.614166,846.491394 397.872070,834.544983 
	C395.588531,833.711853 392.288147,833.868103 390.078583,834.894531 
	C344.638702,856.002869 296.927887,869.083435 247.422165,876.183533 
	C211.218628,881.375854 174.839874,883.322510 138.326523,882.736938 
	C122.353851,882.480774 106.404022,880.791748 90.431442,880.540894 
	C80.489517,880.384705 70.531448,882.030457 60.567272,882.243591 
	C53.954510,882.385071 47.250233,881.857361 40.711365,880.834045 
	C34.103058,879.799805 32.427002,877.090210 32.482410,870.508911 
	C32.729305,841.184326 32.996704,811.859863 33.164715,782.534790 
	C33.528439,719.050476 33.813267,655.565735 34.173248,592.081421 
	C34.473709,539.094299 34.811821,486.107483 35.177139,433.120850 
	C35.468876,390.806488 35.826672,348.492615 36.440582,305.798065 
	C41.494717,311.117920 51.697971,312.973663 48.958897,323.788513 
	C53.641975,323.788513 57.724041,323.788513 62.377991,323.788513 
	C60.793400,317.559052 63.675652,313.719635 68.468529,310.486237 
	C71.628227,308.354675 74.218544,305.379120 77.363564,302.507782 
	C68.404701,300.838196 60.860340,301.423920 56.046597,309.372559 
	C48.318439,302.177185 48.318344,302.181610 38.580376,301.973602 
	C37.752239,301.955902 36.926514,301.825623 36.099670,301.747620 
M295.250885,770.868042 
	C293.993134,768.703979 293.071869,766.234497 291.426788,764.422058 
	C269.965759,740.778320 254.300537,713.815125 244.809647,683.321472 
	C231.786316,641.478271 230.355225,598.844910 237.240585,555.883606 
	C244.378235,511.348145 262.918945,472.143585 294.324738,439.429291 
	C301.071014,432.402008 308.429871,425.962830 315.931335,418.849915 
	C307.223083,416.192108 298.729980,413.885986 290.454376,410.963898 
	C285.702179,409.285889 283.128937,410.709839 280.075623,414.447723 
	C249.876297,451.417511 214.109390,481.702850 170.873611,502.358154 
	C154.621368,510.122467 137.458221,515.980103 120.051643,522.971558 
	C119.097565,619.155273 118.132111,716.485413 117.163986,814.085266 
	C119.617226,813.909180 121.279640,813.876648 122.917450,813.658875 
	C139.577271,811.444031 156.309494,809.654236 172.874985,806.872986 
	C214.838318,799.827881 255.575790,788.432617 295.250885,770.868042 
M439.715637,515.896118 
	C429.737244,496.587952 416.313965,480.048218 399.617157,465.739624 
	C386.903412,476.441742 376.367523,488.748383 367.868134,502.812775 
	C352.926483,527.537537 345.650665,554.640076 343.558136,583.199402 
	C340.899200,619.489014 343.963135,655.031799 358.998352,688.767029 
	C363.995514,699.979370 370.120178,710.514893 377.802155,720.135193 
	C399.293182,703.752319 422.353912,676.560547 435.789764,650.357971 
	C458.257965,606.540344 461.733185,561.902222 439.715637,515.896118 
M231.821640,315.329468 
	C234.981049,311.127747 238.140472,306.926056 241.453415,302.520172 
	C232.943176,300.858002 225.822968,301.093140 222.122528,310.072479 
	C221.412048,311.796478 219.836258,313.163910 218.502655,314.900299 
	C215.893661,311.195709 213.587280,307.731476 211.057739,304.438721 
	C210.247742,303.384369 208.855087,302.092926 207.715912,302.080170 
	C193.438095,301.920166 179.157883,301.975281 164.685944,301.975281 
	C164.685944,309.518646 164.685944,316.596375 164.685944,323.714966 
	C175.537262,323.714966 186.114578,323.714966 196.933105,323.714966 
	C196.826553,321.786743 196.738251,320.188385 196.600693,317.698975 
	C190.154999,317.698975 183.946625,317.698975 177.738251,317.698975 
	C177.746475,317.101501 177.754684,316.504059 177.762909,315.906586 
	C182.867584,315.906586 187.972260,315.906586 193.311798,315.906586 
	C193.311798,313.456024 193.311798,311.883606 193.311798,309.445221 
	C188.094604,309.445221 183.022675,309.445221 177.950760,309.445221 
	C177.970566,308.922485 177.990372,308.399719 178.010178,307.876984 
	C182.233093,307.876984 186.477249,308.127869 190.670059,307.772491 
	C192.807358,307.591339 194.852371,306.321472 197.312592,305.404541 
	C200.655685,309.569000 204.595718,314.717773 208.793732,319.646851 
	C214.305573,326.118591 222.317261,326.032288 228.071487,319.632050 
	C229.184525,318.394043 230.259338,317.121735 231.821640,315.329468 
M296.115723,309.622131 
	C295.229126,309.219269 294.342529,308.816406 293.455933,308.413544 
	C293.540680,308.073456 293.625427,307.733398 293.710175,307.393311 
	C297.955688,307.768127 302.201233,308.142944 306.874298,308.555511 
	C307.836548,307.152527 308.996857,305.460754 310.157166,303.769012 
	C309.987488,303.186951 309.817810,302.604919 309.648102,302.022858 
	C302.885956,302.022858 296.088440,301.606384 289.374817,302.177185 
	C285.269745,302.526215 279.628082,303.222809 279.613251,308.706512 
	C279.600037,313.581604 285.003723,313.779205 288.709991,314.904877 
	C290.607849,315.481262 292.640411,315.598663 294.579773,316.059570 
	C295.719971,316.330505 296.796814,316.868134 297.902161,317.285858 
	C294.408722,318.072144 291.002930,318.639099 287.884796,317.933990 
	C283.628296,316.971497 280.330811,317.178680 278.544128,321.698700 
	C273.613251,315.721527 269.038879,310.023407 264.286316,304.478058 
	C261.796112,301.572418 252.559570,300.453278 250.149551,303.123718 
	C244.320984,309.582153 238.930725,316.436157 232.620544,324.024445 
	C235.846985,324.024445 237.505463,324.110016 239.152176,324.007141 
	C242.904953,323.772736 246.966400,325.303925 249.658951,320.580872 
	C250.934464,318.343445 262.335175,320.207886 264.422028,322.056885 
	C265.600739,323.101257 267.426941,323.882874 268.993652,323.942932 
	C277.181458,324.256805 285.383392,324.507294 293.572693,324.357605 
	C298.022339,324.276306 302.603119,323.850616 306.834625,322.599213 
	C308.877228,321.995178 311.309631,319.263092 311.573090,317.235687 
	C311.766022,315.751007 309.014923,313.153625 307.035004,312.284302 
	C303.902802,310.909027 300.317596,310.565613 296.115723,309.622131 
M83.023109,303.200378 
	C78.166779,305.180573 72.748833,307.160583 73.214798,313.559753 
	C73.682640,319.984741 79.128105,322.486816 84.501053,322.980957 
	C91.851440,323.656952 99.414558,323.744995 106.711334,322.771759 
	C113.407562,321.878540 117.051239,317.460785 117.014076,312.965393 
	C116.977676,308.562134 113.185074,304.071747 106.552460,303.251526 
	C99.079193,302.327271 91.406380,303.016632 83.023109,303.200378 
M73.930878,399.518311 
	C75.036758,400.949829 75.924835,402.644775 77.284698,403.769043 
	C84.749443,409.940430 106.464745,409.849121 113.872917,403.739685 
	C118.809708,399.668365 118.527336,393.534149 113.234741,389.876312 
	C105.101547,384.255157 86.001419,384.295990 77.831444,389.900543 
	C74.654587,392.079865 72.999084,394.862152 73.930878,399.518311 
M120.629448,360.413971 
	C119.801643,360.349823 118.967079,360.332245 118.147240,360.213196 
	C115.043205,359.762512 111.913124,359.003662 112.022697,355.072662 
	C112.125664,351.379150 114.885582,350.026825 118.175446,349.933624 
	C121.481171,349.840027 125.043846,349.314514 128.049606,350.314178 
	C132.810867,351.897705 134.169128,349.259064 136.001862,345.449402 
	C125.305939,343.267517 115.062294,342.338867 105.019569,346.598999 
	C101.357567,348.152405 98.403534,350.736328 98.452171,355.171692 
	C98.500465,359.576202 101.422272,362.259308 105.117279,363.694733 
	C115.374496,367.679382 125.862267,366.510681 136.216080,365.076019 
	C136.216080,360.886780 136.216080,357.317749 136.216080,353.704742 
	C131.735901,353.704742 127.645065,353.704742 124.124321,353.704742 
	C123.151268,356.227875 122.349464,358.306946 120.629448,360.413971 
M239.592529,408.201355 
	C245.634766,407.954407 251.676987,407.707428 257.644897,407.463531 
	C257.644897,402.890167 257.644897,399.447174 257.644897,395.795166 
	C253.181488,395.795166 248.969742,395.795166 244.612991,395.795166 
	C244.441330,398.089264 244.296539,400.024170 244.118683,402.400940 
	C242.074738,402.291290 239.993393,402.746307 238.592850,401.971191 
	C236.515533,400.821503 234.920578,398.800293 233.120285,397.150085 
	C235.030151,395.414185 236.701111,392.716980 238.906219,392.168915 
	C242.170303,391.357605 245.998810,391.398773 249.251724,392.294525 
	C254.089355,393.626648 255.695221,391.447693 256.874786,387.547729 
	C245.318649,384.649109 232.634720,385.182709 225.755249,388.841156 
	C222.383911,390.633972 219.679321,392.926575 219.789108,397.267853 
	C219.897736,401.562866 222.496033,404.197144 226.074463,405.421204 
	C230.104584,406.799744 234.431915,407.309418 239.592529,408.201355 
M186.118683,395.531342 
	C186.118683,399.624176 186.118683,403.717010 186.118683,407.741943 
	C197.416199,407.741943 208.016541,407.741943 218.651917,407.741943 
	C218.651917,405.853058 218.651917,404.254913 218.651917,401.732330 
	C212.070923,401.732330 205.688995,401.732330 199.307053,401.732330 
	C199.307785,401.146362 199.308533,400.560425 199.309280,399.974457 
	C204.439865,399.974457 209.570450,399.974457 214.864166,399.974457 
	C214.864166,397.446106 214.864166,395.751434 214.864166,393.201874 
	C209.506332,393.201874 204.488678,393.201874 199.471008,393.201874 
	C199.499908,392.717072 199.528793,392.232269 199.557693,391.747467 
	C205.450516,391.747467 211.343323,391.747467 217.332031,391.747467 
	C217.332031,389.557861 217.332031,387.968658 217.332031,386.301086 
	C206.854523,386.301086 196.636475,386.301086 186.118439,386.301086 
	C186.118439,389.267090 186.118439,391.908417 186.118683,395.531342 
M263.711914,408.018158 
	C273.942535,408.018158 284.173126,408.018158 294.675873,408.018158 
	C294.500519,405.632477 294.383270,404.037567 294.194672,401.471497 
	C287.590332,401.471497 281.303467,401.471497 275.016602,401.471497 
	C275.047699,400.918213 275.078796,400.364929 275.109894,399.811646 
	C280.306610,399.811646 285.503326,399.811646 290.861084,399.811646 
	C290.861084,397.458923 290.861084,395.766327 290.861084,393.386780 
	C285.416809,393.386780 280.317383,393.386780 275.217957,393.386780 
	C275.227173,392.946442 275.236359,392.506134 275.245575,392.065796 
	C281.055328,392.065796 286.865082,392.065796 292.903320,392.065796 
	C292.903320,389.732178 292.903320,388.028870 292.903320,386.190216 
	C282.542786,386.190216 272.469452,386.190216 261.639465,386.190216 
	C262.017761,393.598511 262.383789,400.766571 263.711914,408.018158 
M227.081360,366.020386 
	C228.297607,365.943756 229.513855,365.867157 231.733963,365.727295 
	C226.005432,358.696381 220.947250,352.354523 215.727722,346.148407 
	C213.669647,343.701355 203.921967,342.609833 201.912796,344.885986 
	C196.167053,351.395264 190.794144,358.233643 184.385574,366.023224 
	C189.226791,366.023224 192.361420,366.237305 195.445251,365.934387 
	C197.027100,365.778961 198.808609,365.023590 199.986313,363.966949 
	C202.058197,362.108093 213.374725,360.357788 214.719101,362.622131 
	C217.719696,367.676208 222.214935,365.550995 227.081360,366.020386 
M148.404373,323.879181 
	C151.856979,323.879181 155.309570,323.879181 158.968979,323.879181 
	C158.968979,316.525757 158.968979,309.470551 158.968979,302.246521 
	C154.674606,302.246521 150.607712,302.246521 146.098633,302.246521 
	C146.098633,305.222107 146.098633,307.937927 146.098633,311.240784 
	C141.744949,308.549530 138.202087,305.644196 134.144058,304.051422 
	C130.052170,302.445374 125.448860,302.142334 120.441917,301.143158 
	C120.441917,305.987610 120.441917,309.455383 120.441917,312.923126 
	C120.441917,316.535400 120.441917,320.147675 120.441917,323.685425 
	C125.124611,323.685425 129.196014,323.685425 133.866699,323.685425 
	C133.866699,320.186798 133.866699,317.015533 133.866699,312.713074 
	C139.128571,316.761261 143.436722,320.075714 148.404373,323.879181 
M39.394161,391.976898 
	C36.054344,397.768005 36.999386,402.412659 42.925266,405.180817 
	C53.291931,410.023315 64.013123,408.705078 74.911636,406.641907 
	C73.376358,402.044891 71.232750,400.701904 66.859612,401.757294 
	C63.260468,402.625916 59.165348,402.448242 55.516186,401.671631 
	C53.714699,401.288239 51.442154,398.619537 51.226475,396.769897 
	C51.066704,395.399719 53.694221,392.644409 55.410564,392.334106 
	C59.093235,391.668304 63.191143,391.437531 66.749443,392.397949 
	C71.637054,393.717194 72.757599,391.144897 74.136284,387.533752 
	C72.350647,387.081879 70.931610,386.500977 69.476791,386.390198 
	C59.210087,385.608582 48.796162,384.110992 39.394161,391.976898 
M173.500458,343.982758 
	C167.588272,343.982758 161.676102,343.982758 155.820984,343.982758 
	C155.820984,346.372101 155.820984,348.101562 155.820984,350.212128 
	C159.933701,350.212128 163.696350,350.212128 167.935669,350.212128 
	C167.935669,355.640106 167.935669,360.697601 167.935669,365.678986 
	C172.499268,365.678986 176.554733,365.678986 181.092407,365.678986 
	C181.092407,360.298401 181.092407,355.248352 181.092407,349.820129 
	C185.336273,349.820129 189.089493,349.820129 193.064209,349.820129 
	C192.960541,347.674408 192.876724,345.939545 192.782196,343.982941 
	C186.433136,343.982941 180.466553,343.982941 173.500458,343.982758 
M231.803772,352.527161 
	C231.803772,356.939087 231.803772,361.350983 231.803772,365.782440 
	C242.301682,365.782440 252.203674,365.782440 262.164642,365.782440 
	C262.164642,363.830292 262.164642,362.124420 262.164642,359.936035 
	C256.211639,359.936035 250.649170,359.936035 244.668671,359.936035 
	C244.668671,354.382507 244.668671,349.312714 244.668671,344.293274 
	C240.157242,344.293274 236.086075,344.293274 231.803223,344.293274 
	C231.803223,346.919647 231.803223,349.230988 231.803772,352.527161 
M160.557495,408.018219 
	C168.475632,408.018219 176.393768,408.018219 184.598206,408.018219 
	C184.481628,405.776093 184.398758,404.182312 184.292160,402.132019 
	C178.433960,402.132019 172.866409,402.132019 166.861145,402.132019 
	C166.861145,396.602905 166.861145,391.527802 166.861145,386.225677 
	C162.340759,386.225677 158.277756,386.225677 154.007782,386.225677 
	C154.007782,393.476044 154.007782,400.527039 154.007782,408.019928 
	C155.988663,408.019928 157.781647,408.019928 160.557495,408.018219 
M146.333344,408.011932 
	C148.105179,408.011932 149.877029,408.011932 151.901245,408.011932 
	C151.797272,405.775879 151.723099,404.181030 151.623672,402.042725 
	C145.651459,402.042725 139.942139,402.042725 133.857300,402.042725 
	C133.857300,396.415649 133.857300,391.337677 133.857300,386.264771 
	C129.387024,386.264771 125.326012,386.264771 121.251778,386.264771 
	C121.251778,393.604095 121.251778,400.658813 121.251778,408.015259 
	C129.476379,408.015259 137.425461,408.015259 146.333344,408.011932 
M76.073776,360.349335 
	C79.801628,354.289703 78.489494,349.665039 71.807976,346.849731 
	C61.287334,342.416779 50.305500,344.120422 39.373421,344.341522 
	C39.373421,351.789001 39.373421,358.659515 39.373421,366.031250 
	C45.892197,366.031250 52.121872,366.697235 58.135387,365.842468 
	C64.056221,365.000885 69.757942,362.617706 76.073776,360.349335 
M141.692749,344.076447 
	C141.291855,351.321259 140.890976,358.566071 140.500641,365.620178 
	C145.612015,365.620178 149.649704,365.620178 153.659348,365.620178 
	C153.659348,358.313507 153.659348,351.405365 153.659348,343.991760 
	C149.855881,343.991760 146.255966,343.991760 141.692749,344.076447 
M81.806526,356.483154 
	C81.806526,359.569153 81.806526,362.655121 81.806526,365.702881 
	C86.453262,365.702881 90.503357,365.702881 94.554810,365.702881 
	C94.554810,358.340973 94.554810,351.304199 94.554810,344.290100 
	C90.163101,344.290100 86.099693,344.290100 81.806366,344.290100 
	C81.806366,348.232849 81.806366,351.864685 81.806526,356.483154 
z"/>
<path fill="#FDF5F4" opacity="1.000000" stroke="none" 
	d="
M36.074066,302.188477 
	C36.926514,301.825623 37.752239,301.955902 38.580376,301.973602 
	C48.318344,302.181610 48.318439,302.177185 56.046597,309.372559 
	C60.860340,301.423920 68.404701,300.838196 77.363564,302.507782 
	C74.218544,305.379120 71.628227,308.354675 68.468529,310.486237 
	C63.675652,313.719635 60.793400,317.559052 62.377991,323.788513 
	C57.724041,323.788513 53.641975,323.788513 48.958897,323.788513 
	C51.697971,312.973663 41.494717,311.117920 36.413788,305.347137 
	C36.083855,304.394226 36.066158,303.511749 36.074066,302.188477 
z"/>
<path fill="#F7F6F6" opacity="1.000000" stroke="none" 
	d="
M294.893555,770.978516 
	C255.575790,788.432617 214.838318,799.827881 172.874985,806.872986 
	C156.309494,809.654236 139.577271,811.444031 122.917450,813.658875 
	C121.279640,813.876648 119.617226,813.909180 117.163986,814.085266 
	C118.132111,716.485413 119.097565,619.155273 120.051643,522.971558 
	C137.458221,515.980103 154.621368,510.122467 170.873611,502.358154 
	C214.109390,481.702850 249.876297,451.417511 280.075623,414.447723 
	C283.128937,410.709839 285.702179,409.285889 290.454376,410.963898 
	C298.729980,413.885986 307.223083,416.192108 315.931335,418.849915 
	C308.429871,425.962830 301.071014,432.402008 294.324738,439.429291 
	C262.918945,472.143585 244.378235,511.348145 237.240585,555.883606 
	C230.355225,598.844910 231.786316,641.478271 244.809647,683.321472 
	C254.300537,713.815125 269.965759,740.778320 291.426788,764.422058 
	C293.071869,766.234497 293.993134,768.703979 294.893555,770.978516 
z"/>
<path fill="#F7F6F6" opacity="1.000000" stroke="none" 
	d="
M439.869507,516.237305 
	C461.733185,561.902222 458.257965,606.540344 435.789764,650.357971 
	C422.353912,676.560547 399.293182,703.752319 377.802155,720.135193 
	C370.120178,710.514893 363.995514,699.979370 358.998352,688.767029 
	C343.963135,655.031799 340.899200,619.489014 343.558136,583.199402 
	C345.650665,554.640076 352.926483,527.537537 367.868134,502.812775 
	C376.367523,488.748383 386.903412,476.441742 399.617157,465.739624 
	C416.313965,480.048218 429.737244,496.587952 439.869507,516.237305 
z"/>
<path fill="#FDF0EF" opacity="1.000000" stroke="none" 
	d="
M231.586700,315.597351 
	C230.259338,317.121735 229.184525,318.394043 228.071487,319.632050 
	C222.317261,326.032288 214.305573,326.118591 208.793732,319.646851 
	C204.595718,314.717773 200.655685,309.569000 197.312592,305.404541 
	C194.852371,306.321472 192.807358,307.591339 190.670059,307.772491 
	C186.477249,308.127869 182.233093,307.876984 178.010178,307.876984 
	C177.990372,308.399719 177.970566,308.922485 177.950760,309.445221 
	C183.022675,309.445221 188.094604,309.445221 193.311798,309.445221 
	C193.311798,311.883606 193.311798,313.456024 193.311798,315.906586 
	C187.972260,315.906586 182.867584,315.906586 177.762909,315.906586 
	C177.754684,316.504059 177.746475,317.101501 177.738251,317.698975 
	C183.946625,317.698975 190.154999,317.698975 196.600693,317.698975 
	C196.738251,320.188385 196.826553,321.786743 196.933105,323.714966 
	C186.114578,323.714966 175.537262,323.714966 164.685944,323.714966 
	C164.685944,316.596375 164.685944,309.518646 164.685944,301.975281 
	C179.157883,301.975281 193.438095,301.920166 207.715912,302.080170 
	C208.855087,302.092926 210.247742,303.384369 211.057739,304.438721 
	C213.587280,307.731476 215.893661,311.195709 218.502655,314.900299 
	C219.836258,313.163910 221.412048,311.796478 222.122528,310.072479 
	C225.822968,301.093140 232.943176,300.858002 241.453415,302.520172 
	C238.140472,306.926056 234.981049,311.127747 231.586700,315.597351 
M206.450150,309.711853 
	C206.714096,309.988831 206.978027,310.265839 207.241989,310.542847 
	C207.356659,310.433472 207.471344,310.324097 207.585999,310.214691 
	C207.321732,309.937683 207.057465,309.660645 206.450150,309.711853 
M229.578110,308.515686 
	C229.578110,308.515686 229.477936,308.573212 229.578110,308.515686 
M203.422058,307.484314 
	C203.422058,307.484314 203.522095,307.426880 203.422058,307.484314 
z"/>
<path fill="#FDF1F0" opacity="1.000000" stroke="none" 
	d="
M296.519897,309.703827 
	C300.317596,310.565613 303.902802,310.909027 307.035004,312.284302 
	C309.014923,313.153625 311.766022,315.751007 311.573090,317.235687 
	C311.309631,319.263092 308.877228,321.995178 306.834625,322.599213 
	C302.603119,323.850616 298.022339,324.276306 293.572693,324.357605 
	C285.383392,324.507294 277.181458,324.256805 268.993652,323.942932 
	C267.426941,323.882874 265.600739,323.101257 264.422028,322.056885 
	C262.335175,320.207886 250.934464,318.343445 249.658951,320.580872 
	C246.966400,325.303925 242.904953,323.772736 239.152176,324.007141 
	C237.505463,324.110016 235.846985,324.024445 232.620544,324.024445 
	C238.930725,316.436157 244.320984,309.582153 250.149551,303.123718 
	C252.559570,300.453278 261.796112,301.572418 264.286316,304.478058 
	C269.038879,310.023407 273.613251,315.721527 278.544128,321.698700 
	C280.330811,317.178680 283.628296,316.971497 287.884796,317.933990 
	C291.002930,318.639099 294.408722,318.072144 297.902161,317.285858 
	C296.796814,316.868134 295.719971,316.330505 294.579773,316.059570 
	C292.640411,315.598663 290.607849,315.481262 288.709991,314.904877 
	C285.003723,313.779205 279.600037,313.581604 279.613251,308.706512 
	C279.628082,303.222809 285.269745,302.526215 289.374817,302.177185 
	C296.088440,301.606384 302.885956,302.022858 309.648102,302.022858 
	C309.817810,302.604919 309.987488,303.186951 310.157166,303.769012 
	C308.996857,305.460754 307.836548,307.152527 306.874298,308.555511 
	C302.201233,308.142944 297.955688,307.768127 293.710175,307.393311 
	C293.625427,307.733398 293.540680,308.073456 293.455933,308.413544 
	C294.342529,308.816406 295.229126,309.219269 296.519897,309.703827 
z"/>
<path fill="#FCF0EF" opacity="1.000000" stroke="none" 
	d="
M83.421738,303.102295 
	C91.406380,303.016632 99.079193,302.327271 106.552460,303.251526 
	C113.185074,304.071747 116.977676,308.562134 117.014076,312.965393 
	C117.051239,317.460785 113.407562,321.878540 106.711334,322.771759 
	C99.414558,323.744995 91.851440,323.656952 84.501053,322.980957 
	C79.128105,322.486816 73.682640,319.984741 73.214798,313.559753 
	C72.748833,307.160583 78.166779,305.180573 83.421738,303.102295 
M99.638512,317.825287 
	C100.948608,315.966797 103.725845,313.448212 103.250999,312.392822 
	C102.372246,310.439758 99.773514,308.717773 97.549210,308.065399 
	C95.319069,307.411224 92.436333,307.615295 90.284653,308.511597 
	C88.689095,309.176208 86.843521,311.570038 86.876114,313.157227 
	C86.908577,314.737091 88.879005,317.136963 90.476387,317.628723 
	C93.047775,318.420288 96.010864,317.939423 99.638512,317.825287 
z"/>
<path fill="#FDF1F0" opacity="1.000000" stroke="none" 
	d="
M73.875092,399.160339 
	C72.999084,394.862152 74.654587,392.079865 77.831444,389.900543 
	C86.001419,384.295990 105.101547,384.255157 113.234741,389.876312 
	C118.527336,393.534149 118.809708,399.668365 113.872917,403.739685 
	C106.464745,409.849121 84.749443,409.940430 77.284698,403.769043 
	C75.924835,402.644775 75.036758,400.949829 73.875092,399.160339 
M88.321739,393.753540 
	C86.120361,398.199615 87.064064,401.024841 91.523758,401.864136 
	C94.220474,402.371613 97.300079,402.511078 99.827751,401.671753 
	C101.550285,401.099823 103.519089,398.634735 103.687233,396.856293 
	C103.819923,395.452881 101.494293,392.642639 100.052223,392.495331 
	C96.414314,392.123627 92.658836,392.902435 88.321739,393.753540 
z"/>
<path fill="#FDEDED" opacity="1.000000" stroke="none" 
	d="
M121.088554,360.399994 
	C122.349464,358.306946 123.151268,356.227875 124.124321,353.704742 
	C127.645065,353.704742 131.735901,353.704742 136.216080,353.704742 
	C136.216080,357.317749 136.216080,360.886780 136.216080,365.076019 
	C125.862267,366.510681 115.374496,367.679382 105.117279,363.694733 
	C101.422272,362.259308 98.500465,359.576202 98.452171,355.171692 
	C98.403534,350.736328 101.357567,348.152405 105.019569,346.598999 
	C115.062294,342.338867 125.305939,343.267517 136.001862,345.449402 
	C134.169128,349.259064 132.810867,351.897705 128.049606,350.314178 
	C125.043846,349.314514 121.481171,349.840027 118.175446,349.933624 
	C114.885582,350.026825 112.125664,351.379150 112.022697,355.072662 
	C111.913124,359.003662 115.043205,359.762512 118.147240,360.213196 
	C118.967079,360.332245 119.801643,360.349823 121.088554,360.399994 
z"/>
<path fill="#FDEEED" opacity="1.000000" stroke="none" 
	d="
M239.111237,408.199219 
	C234.431915,407.309418 230.104584,406.799744 226.074463,405.421204 
	C222.496033,404.197144 219.897736,401.562866 219.789108,397.267853 
	C219.679321,392.926575 222.383911,390.633972 225.755249,388.841156 
	C232.634720,385.182709 245.318649,384.649109 256.874786,387.547729 
	C255.695221,391.447693 254.089355,393.626648 249.251724,392.294525 
	C245.998810,391.398773 242.170303,391.357605 238.906219,392.168915 
	C236.701111,392.716980 235.030151,395.414185 233.120300,397.150085 
	C234.920578,398.800293 236.515533,400.821503 238.592850,401.971191 
	C239.993393,402.746307 242.074738,402.291290 244.118683,402.400940 
	C244.296539,400.024170 244.441330,398.089264 244.612991,395.795166 
	C248.969742,395.795166 253.181488,395.795166 257.644897,395.795166 
	C257.644897,399.447174 257.644897,402.890167 257.644897,407.463531 
	C251.676987,407.707428 245.634766,407.954407 239.111237,408.199219 
z"/>
<path fill="#FDEFEF" opacity="1.000000" stroke="none" 
	d="
M186.118561,395.040527 
	C186.118439,391.908417 186.118439,389.267090 186.118439,386.301086 
	C196.636475,386.301086 206.854523,386.301086 217.332031,386.301086 
	C217.332031,387.968658 217.332031,389.557861 217.332031,391.747467 
	C211.343323,391.747467 205.450516,391.747467 199.557693,391.747467 
	C199.528793,392.232269 199.499908,392.717072 199.471008,393.201874 
	C204.488678,393.201874 209.506332,393.201874 214.864166,393.201874 
	C214.864166,395.751434 214.864166,397.446106 214.864166,399.974457 
	C209.570450,399.974457 204.439865,399.974457 199.309280,399.974457 
	C199.308533,400.560425 199.307785,401.146362 199.307053,401.732330 
	C205.688995,401.732330 212.070923,401.732330 218.651917,401.732330 
	C218.651917,404.254913 218.651917,405.853058 218.651917,407.741943 
	C208.016541,407.741943 197.416199,407.741943 186.118683,407.741943 
	C186.118683,403.717010 186.118683,399.624176 186.118561,395.040527 
z"/>
<path fill="#FDF1F1" opacity="1.000000" stroke="none" 
	d="
M263.230865,407.976379 
	C262.383789,400.766571 262.017761,393.598511 261.639465,386.190216 
	C272.469452,386.190216 282.542786,386.190216 292.903320,386.190216 
	C292.903320,388.028870 292.903320,389.732178 292.903320,392.065796 
	C286.865082,392.065796 281.055328,392.065796 275.245575,392.065796 
	C275.236359,392.506134 275.227173,392.946442 275.217957,393.386780 
	C280.317383,393.386780 285.416809,393.386780 290.861084,393.386780 
	C290.861084,395.766327 290.861084,397.458923 290.861084,399.811646 
	C285.503326,399.811646 280.306610,399.811646 275.109894,399.811646 
	C275.078796,400.364929 275.047699,400.918213 275.016602,401.471497 
	C281.303467,401.471497 287.590332,401.471497 294.194672,401.471497 
	C294.383270,404.037567 294.500519,405.632477 294.675873,408.018158 
	C284.173126,408.018158 273.942535,408.018158 263.230865,407.976379 
z"/>
<path fill="#FDF2F1" opacity="1.000000" stroke="none" 
	d="
M226.642426,366.019958 
	C222.214935,365.550995 217.719696,367.676208 214.719101,362.622131 
	C213.374725,360.357788 202.058197,362.108093 199.986313,363.966949 
	C198.808609,365.023590 197.027100,365.778961 195.445251,365.934387 
	C192.361420,366.237305 189.226791,366.023224 184.385574,366.023224 
	C190.794144,358.233643 196.167053,351.395264 201.912796,344.885986 
	C203.921967,342.609833 213.669647,343.701355 215.727722,346.148407 
	C220.947250,352.354523 226.005432,358.696381 231.733963,365.727295 
	C229.513855,365.867157 228.297607,365.943756 226.642426,366.019958 
z"/>
<path fill="#FDF3F2" opacity="1.000000" stroke="none" 
	d="
M148.074615,323.634674 
	C143.436722,320.075714 139.128571,316.761261 133.866699,312.713074 
	C133.866699,317.015533 133.866699,320.186798 133.866699,323.685425 
	C129.196014,323.685425 125.124611,323.685425 120.441917,323.685425 
	C120.441917,320.147675 120.441917,316.535400 120.441917,312.923126 
	C120.441917,309.455383 120.441917,305.987610 120.441917,301.143158 
	C125.448860,302.142334 130.052170,302.445374 134.144058,304.051422 
	C138.202087,305.644196 141.744949,308.549530 146.098633,311.240784 
	C146.098633,307.937927 146.098633,305.222107 146.098633,302.246521 
	C150.607712,302.246521 154.674606,302.246521 158.968979,302.246521 
	C158.968979,309.470551 158.968979,316.525757 158.968979,323.879181 
	C155.309570,323.879181 151.856979,323.879181 148.074615,323.634674 
M125.022606,307.111450 
	C124.928947,320.659576 124.928947,320.659576 128.618195,321.579834 
	C129.158005,316.540619 129.692627,311.549927 130.227234,306.559235 
	C129.520523,304.949585 127.538544,302.098267 125.022606,307.111450 
M149.786942,321.073334 
	C151.471619,320.879333 154.609787,320.765533 154.625580,320.479431 
	C154.919144,315.159668 154.840988,309.819397 154.840988,304.483459 
	C154.432358,304.471558 154.023727,304.459656 153.615097,304.447784 
	C152.206314,309.769562 150.797546,315.091370 149.786942,321.073334 
M146.288071,316.449982 
	C146.011169,316.713867 145.734253,316.977753 145.457352,317.241638 
	C145.566727,317.356262 145.765198,317.576569 145.772644,317.570282 
	C146.064728,317.324036 146.339371,317.057129 146.288071,316.449982 
z"/>
<path fill="#FDF0EF" opacity="1.000000" stroke="none" 
	d="
M39.651985,391.710693 
	C48.796162,384.110992 59.210087,385.608582 69.476791,386.390198 
	C70.931610,386.500977 72.350647,387.081879 74.136284,387.533752 
	C72.757599,391.144897 71.637054,393.717194 66.749443,392.397949 
	C63.191143,391.437531 59.093235,391.668304 55.410564,392.334106 
	C53.694221,392.644409 51.066704,395.399719 51.226475,396.769897 
	C51.442154,398.619537 53.714699,401.288239 55.516186,401.671631 
	C59.165348,402.448242 63.260468,402.625916 66.859612,401.757294 
	C71.232750,400.701904 73.376358,402.044891 74.911636,406.641907 
	C64.013123,408.705078 53.291931,410.023315 42.925266,405.180817 
	C36.999386,402.412659 36.054344,397.768005 39.651985,391.710693 
z"/>
<path fill="#FEF6F5" opacity="1.000000" stroke="none" 
	d="
M174.000214,343.982849 
	C180.466553,343.982941 186.433136,343.982941 192.782196,343.982941 
	C192.876724,345.939545 192.960541,347.674408 193.064209,349.820129 
	C189.089493,349.820129 185.336273,349.820129 181.092407,349.820129 
	C181.092407,355.248352 181.092407,360.298401 181.092407,365.678986 
	C176.554733,365.678986 172.499268,365.678986 167.935669,365.678986 
	C167.935669,360.697601 167.935669,355.640106 167.935669,350.212128 
	C163.696350,350.212128 159.933701,350.212128 155.820984,350.212128 
	C155.820984,348.101562 155.820984,346.372101 155.820984,343.982758 
	C161.676102,343.982758 167.588272,343.982758 174.000214,343.982849 
z"/>
<path fill="#FEF3F2" opacity="1.000000" stroke="none" 
	d="
M231.803497,352.034729 
	C231.803223,349.230988 231.803223,346.919647 231.803223,344.293274 
	C236.086075,344.293274 240.157242,344.293274 244.668671,344.293274 
	C244.668671,349.312714 244.668671,354.382507 244.668671,359.936035 
	C250.649170,359.936035 256.211639,359.936035 262.164642,359.936035 
	C262.164642,362.124420 262.164642,363.830292 262.164642,365.782440 
	C252.203674,365.782440 242.301682,365.782440 231.803772,365.782440 
	C231.803772,361.350983 231.803772,356.939087 231.803497,352.034729 
z"/>
<path fill="#FDF2F2" opacity="1.000000" stroke="none" 
	d="
M160.066071,408.019073 
	C157.781647,408.019928 155.988663,408.019928 154.007782,408.019928 
	C154.007782,400.527039 154.007782,393.476044 154.007782,386.225677 
	C158.277756,386.225677 162.340759,386.225677 166.861145,386.225677 
	C166.861145,391.527802 166.861145,396.602905 166.861145,402.132019 
	C172.866409,402.132019 178.433960,402.132019 184.292160,402.132019 
	C184.398758,404.182312 184.481628,405.776093 184.598206,408.018219 
	C176.393768,408.018219 168.475632,408.018219 160.066071,408.019073 
z"/>
<path fill="#FEF6F5" opacity="1.000000" stroke="none" 
	d="
M145.853943,408.013611 
	C137.425461,408.015259 129.476379,408.015259 121.251778,408.015259 
	C121.251778,400.658813 121.251778,393.604095 121.251778,386.264771 
	C125.326012,386.264771 129.387024,386.264771 133.857300,386.264771 
	C133.857300,391.337677 133.857300,396.415649 133.857300,402.042725 
	C139.942139,402.042725 145.651459,402.042725 151.623672,402.042725 
	C151.723099,404.181030 151.797272,405.775879 151.901245,408.011932 
	C149.877029,408.011932 148.105179,408.011932 145.853943,408.013611 
z"/>
<path fill="#FDF7F6" opacity="1.000000" stroke="none" 
	d="
M75.814789,360.630127 
	C69.757942,362.617706 64.056221,365.000885 58.135387,365.842468 
	C52.121872,366.697235 45.892197,366.031250 39.373421,366.031250 
	C39.373421,358.659515 39.373421,351.789001 39.373421,344.341522 
	C50.305500,344.120422 61.287334,342.416779 71.807976,346.849731 
	C78.489494,349.665039 79.801628,354.289703 75.814789,360.630127 
M62.284809,346.687378 
	C60.187836,346.459534 58.090862,346.231689 55.196434,346.003448 
	C54.133091,346.004333 53.069744,346.005219 51.253399,346.003052 
	C50.500393,346.003815 49.747387,346.004547 48.121449,346.003510 
	C46.545395,346.122589 44.969341,346.241638 43.003689,346.390137 
	C43.003689,351.006531 43.162754,355.126953 42.956978,359.229095 
	C42.767860,362.999237 44.445114,364.382263 48.903252,363.997437 
	C51.936188,363.997894 54.969128,363.998352 58.706158,363.986145 
	C59.468979,363.324493 60.231796,362.662842 61.662235,362.000641 
	C62.107307,362.000824 62.552380,362.001038 63.449841,362.495331 
	C64.884247,362.294800 66.326653,362.139221 67.751556,361.885345 
	C71.933685,361.140259 73.768227,357.828888 73.469971,354.398285 
	C73.285690,352.278656 70.667313,350.038971 68.640640,348.523010 
	C67.192627,347.439911 64.912430,347.469391 62.284809,346.687378 
z"/>
<path fill="#FEF5F5" opacity="1.000000" stroke="none" 
	d="
M142.174393,344.034119 
	C146.255966,343.991760 149.855881,343.991760 153.659348,343.991760 
	C153.659348,351.405365 153.659348,358.313507 153.659348,365.620178 
	C149.649704,365.620178 145.612015,365.620178 140.500641,365.620178 
	C140.890976,358.566071 141.291855,351.321259 142.174393,344.034119 
z"/>
<path fill="#FDF5F4" opacity="1.000000" stroke="none" 
	d="
M81.806442,355.989838 
	C81.806366,351.864685 81.806366,348.232849 81.806366,344.290100 
	C86.099693,344.290100 90.163101,344.290100 94.554810,344.290100 
	C94.554810,351.304199 94.554810,358.340973 94.554810,365.702881 
	C90.503357,365.702881 86.453262,365.702881 81.806526,365.702881 
	C81.806526,362.655121 81.806526,359.569153 81.806442,355.989838 
z"/>
<path fill="#FDF0EF" opacity="1.000000" stroke="none" 
	d="
M206.621674,309.547729 
	C207.057465,309.660645 207.321732,309.937683 207.585999,310.214722 
	C207.471344,310.324097 207.356659,310.433472 207.241974,310.542847 
	C206.978027,310.265839 206.714096,309.988831 206.621674,309.547729 
z"/>
<path fill="#FDF0EF" opacity="1.000000" stroke="none" 
	d="
M229.528015,308.544434 
	C229.477936,308.573212 229.578110,308.515686 229.528015,308.544434 
z"/>
<path fill="#FDF0EF" opacity="1.000000" stroke="none" 
	d="
M203.472076,307.455597 
	C203.522095,307.426880 203.422058,307.484314 203.472076,307.455597 
z"/>
<path fill="#FD0809" opacity="1.000000" stroke="none" 
	d="
M99.223495,317.910706 
	C96.010864,317.939423 93.047775,318.420288 90.476387,317.628723 
	C88.879005,317.136963 86.908577,314.737091 86.876114,313.157227 
	C86.843521,311.570038 88.689095,309.176208 90.284653,308.511597 
	C92.436333,307.615295 95.319069,307.411224 97.549210,308.065399 
	C99.773514,308.717773 102.372246,310.439758 103.250999,312.392822 
	C103.725845,313.448212 100.948608,315.966797 99.223495,317.910706 
z"/>
<path fill="#FE0808" opacity="1.000000" stroke="none" 
	d="
M88.636108,393.486877 
	C92.658836,392.902435 96.414314,392.123627 100.052223,392.495331 
	C101.494293,392.642639 103.819923,395.452881 103.687233,396.856293 
	C103.519089,398.634735 101.550285,401.099823 99.827751,401.671753 
	C97.300079,402.511078 94.220474,402.371613 91.523758,401.864136 
	C87.064064,401.024841 86.120361,398.199615 88.636108,393.486877 
z"/>
<path fill="#FEF0EF" opacity="1.000000" stroke="none" 
	d="
M125.069214,306.686951 
	C127.538544,302.098267 129.520523,304.949585 130.227234,306.559235 
	C129.692627,311.549927 129.158005,316.540619 128.618195,321.579834 
	C124.928947,320.659576 124.928947,320.659576 125.069214,306.686951 
z"/>
<path fill="#FEF0EF" opacity="1.000000" stroke="none" 
	d="
M149.587860,320.743256 
	C150.797546,315.091370 152.206314,309.769562 153.615097,304.447784 
	C154.023727,304.459656 154.432358,304.471558 154.840988,304.483459 
	C154.840988,309.819397 154.919144,315.159668 154.625580,320.479431 
	C154.609787,320.765533 151.471619,320.879333 149.587860,320.743256 
z"/>
<path fill="#FEF0EF" opacity="1.000000" stroke="none" 
	d="
M146.452194,316.621460 
	C146.339371,317.057129 146.064728,317.324036 145.772644,317.570282 
	C145.765198,317.576569 145.566727,317.356262 145.457336,317.241638 
	C145.734253,316.977753 146.011169,316.713867 146.452194,316.621460 
z"/>
<path fill="#FDF5F4" opacity="1.000000" stroke="none" 
	d="
M55.993889,346.003845 
	C58.090862,346.231689 60.187836,346.459534 62.799583,347.154785 
	C65.200623,349.485596 68.008148,351.031525 68.782433,353.278198 
	C70.422096,358.035858 66.533226,360.121368 62.997452,362.001221 
	C62.552380,362.001038 62.107307,362.000824 60.976795,362.007294 
	C59.528263,362.675568 58.765171,363.337189 58.002071,363.998779 
	C54.969128,363.998352 51.936188,363.997894 48.450714,363.529419 
	C48.330246,357.376038 48.662312,351.690674 48.994381,346.005310 
	C49.747387,346.004547 50.500393,346.003815 51.671665,346.313782 
	C53.391251,346.417603 54.692570,346.210724 55.993889,346.003845 
M52.795818,350.133636 
	C52.551762,353.453156 52.307705,356.772644 52.013546,360.773590 
	C55.835094,360.140564 58.887264,360.081055 61.537888,359.019196 
	C62.996029,358.435028 64.540161,356.205566 64.624832,354.640991 
	C64.692657,353.387756 62.851475,351.333801 61.442181,350.853333 
	C59.023136,350.028534 56.280098,350.153931 52.795818,350.133636 
z"/>
<path fill="#FEF0EF" opacity="1.000000" stroke="none" 
	d="
M48.557915,346.004395 
	C48.662312,351.690674 48.330246,357.376038 47.996181,363.527649 
	C44.445114,364.382263 42.767860,362.999237 42.956978,359.229095 
	C43.162754,355.126953 43.003689,351.006531 43.003689,346.390137 
	C44.969341,346.241638 46.545395,346.122589 48.557915,346.004395 
z"/>
<path fill="#FEF0EF" opacity="1.000000" stroke="none" 
	d="
M63.223648,362.248291 
	C66.533226,360.121368 70.422096,358.035858 68.782433,353.278198 
	C68.008148,351.031525 65.200623,349.485596 63.158962,347.312317 
	C64.912430,347.469391 67.192627,347.439911 68.640640,348.523010 
	C70.667313,350.038971 73.285690,352.278656 73.469971,354.398285 
	C73.768227,357.828888 71.933685,361.140259 67.751556,361.885345 
	C66.326653,362.139221 64.884247,362.294800 63.223648,362.248291 
z"/>
<path fill="#FEF0EF" opacity="1.000000" stroke="none" 
	d="
M55.595161,346.003662 
	C54.692570,346.210724 53.391251,346.417603 52.048164,346.315308 
	C53.069744,346.005219 54.133091,346.004333 55.595161,346.003662 
z"/>
<path fill="#FEF0EF" opacity="1.000000" stroke="none" 
	d="
M58.354118,363.992493 
	C58.765171,363.337189 59.528263,362.675568 60.642986,362.007568 
	C60.231796,362.662842 59.468979,363.324493 58.354118,363.992493 
z"/>
<path fill="#FC0F0F" opacity="1.000000" stroke="none" 
	d="
M53.234444,350.007050 
	C56.280098,350.153931 59.023136,350.028534 61.442181,350.853333 
	C62.851475,351.333801 64.692657,353.387756 64.624832,354.640991 
	C64.540161,356.205566 62.996029,358.435028 61.537888,359.019196 
	C58.887264,360.081055 55.835094,360.140564 52.013546,360.773590 
	C52.307705,356.772644 52.551762,353.453156 53.234444,350.007050 
z"/>
</svg>